<?xml version="1.0" ?><svg id="Layer_1" style="enable-background:new 0 0 200 200;" version="1.1" viewBox="0 0 200 200" xml:space="preserve" xmlns="http://www.w3.org/2000/svg" xmlns:xlink="http://www.w3.org/1999/xlink"><style type="text/css">
	.st0{fill:url(#SVGID_1_);}
	.st1{fill:url(#SVGID_2_);}
	.st2{fill:url(#SVGID_3_);}
</style><g><linearGradient gradientUnits="userSpaceOnUse" id="SVGID_1_" x1="164.0231" x2="19.648" y1="164.0202" y2="19.6452"><stop offset="0" style="stop-color:#007FE2"/><stop offset="1" style="stop-color:#39D3B8"/></linearGradient><path class="st0" d="M173.475,84.885c-0.985-4.816-2.455-9.554-4.37-14.084c-1.884-4.45-4.211-8.737-6.917-12.742   c-1.074-1.589-3.234-2.007-4.82-0.933c-1.59,1.074-2.007,3.232-0.933,4.821c2.455,3.633,4.567,7.523,6.274,11.559   c1.737,4.107,3.071,8.404,3.963,12.771c0.918,4.483,1.383,9.099,1.383,13.719c0,4.621-0.465,9.237-1.383,13.721   c-0.892,4.366-2.226,8.663-3.963,12.77c-1.708,4.037-3.819,7.926-6.274,11.56c-2.436,3.606-5.233,6.995-8.312,10.075   c-3.083,3.082-6.472,5.879-10.075,8.313c-3.636,2.457-7.525,4.568-11.559,6.274c-4.104,1.736-8.401,3.07-12.77,3.964   c-8.968,1.835-18.471,1.835-27.439,0c-4.369-0.894-8.666-2.228-12.77-3.964c-4.034-1.706-7.922-3.817-11.559-6.274   c-1.584-1.071-3.745-0.657-4.82,0.933c-1.074,1.589-0.656,3.748,0.933,4.821c4.008,2.709,8.294,5.036,12.741,6.917   c4.526,1.915,9.264,3.385,14.083,4.371C89.83,174.487,94.914,175,100,175s10.17-0.513,15.111-1.524   c4.819-0.986,9.557-2.456,14.083-4.371c4.447-1.881,8.733-4.208,12.741-6.916c3.969-2.68,7.703-5.761,11.098-9.156   c3.392-3.392,6.472-7.126,9.155-11.097c2.706-4.005,5.033-8.292,6.917-12.743c1.915-4.53,3.385-9.269,4.37-14.083   c1.012-4.94,1.525-10.025,1.525-15.113C175,94.909,174.487,89.824,173.475,84.885z"/><linearGradient gradientUnits="userSpaceOnUse" id="SVGID_2_" x1="164.0233" x2="19.6482" y1="164.0201" y2="19.645"><stop offset="0" style="stop-color:#007FE2"/><stop offset="1" style="stop-color:#39D3B8"/></linearGradient><path class="st1" d="M37.291,73.506c1.704-4.03,3.814-7.919,6.273-11.559c2.437-3.607,5.234-6.997,8.313-10.075   c3.083-3.082,6.472-5.879,10.075-8.313c3.638-2.458,7.526-4.568,11.56-6.274c4.103-1.736,8.398-3.07,12.769-3.964   c8.968-1.835,18.471-1.835,27.439,0c4.37,0.895,8.666,2.228,12.77,3.965c4.032,1.705,7.921,3.816,11.559,6.273   c1.583,1.071,3.745,0.658,4.82-0.933c1.074-1.589,0.656-3.748-0.933-4.821c-4.008-2.709-8.295-5.036-12.74-6.916   c-4.526-1.915-9.265-3.386-14.084-4.372c-9.882-2.022-20.34-2.022-30.222,0c-4.819,0.986-9.558,2.457-14.083,4.372   c-4.446,1.88-8.733,4.207-12.741,6.916c-3.969,2.681-7.703,5.762-11.098,9.157c-3.391,3.391-6.472,7.125-9.157,11.098   c-2.71,4.012-5.037,8.299-6.916,12.742c-1.914,4.527-3.385,9.265-4.371,14.084C25.513,89.827,25,94.911,25,99.996   c0,5.085,0.513,10.17,1.523,15.113c0.986,4.817,2.458,9.554,4.371,14.083c1.879,4.443,4.206,8.73,6.916,12.742   c0.67,0.993,1.765,1.529,2.88,1.529c0.669,0,1.345-0.193,1.941-0.595c1.59-1.074,2.007-3.232,0.933-4.821   c-2.459-3.641-4.569-7.529-6.273-11.559c-1.736-4.107-3.071-8.404-3.965-12.771c-0.917-4.486-1.382-9.101-1.382-13.721   c0-4.619,0.465-9.234,1.382-13.719C34.222,81.908,35.555,77.611,37.291,73.506z"/><linearGradient gradientUnits="userSpaceOnUse" id="SVGID_3_" x1="173.1982" x2="28.8231" y1="154.8452" y2="10.4701"><stop offset="0" style="stop-color:#007FE2"/><stop offset="1" style="stop-color:#39D3B8"/></linearGradient><path class="st2" d="M100,59.824c-1.918,0-3.472,1.554-3.472,3.472v36.7c0,0.228,0.024,0.455,0.068,0.68   c0.021,0.104,0.059,0.2,0.089,0.301c0.034,0.116,0.061,0.234,0.108,0.347c0.05,0.12,0.117,0.229,0.18,0.342   c0.047,0.085,0.084,0.174,0.139,0.256c0.128,0.192,0.274,0.371,0.437,0.534l25.946,25.948c0.678,0.678,1.567,1.017,2.455,1.017   c0.888,0,1.777-0.339,2.455-1.017c1.356-1.356,1.356-3.554,0-4.91l-24.932-24.934V63.296C103.472,61.378,101.918,59.824,100,59.824   z"/></g></svg>